<?xml version="1.0" encoding="UTF-8" standalone="no"?>
<svg
   xmlns:dc="http://purl.org/dc/elements/1.1/"
   xmlns:cc="http://creativecommons.org/ns#"
   xmlns:rdf="http://www.w3.org/1999/02/22-rdf-syntax-ns#"
   xmlns:svg="http://www.w3.org/2000/svg"
   xmlns="http://www.w3.org/2000/svg"
   xmlns:sodipodi="http://sodipodi.sourceforge.net/DTD/sodipodi-0.dtd"
   xmlns:inkscape="http://www.inkscape.org/namespaces/inkscape"
   version="1.1"
   id="Layer_1"
   x="0px"
   y="0px"
   viewBox="0 0 500.00001 500"
   xml:space="preserve"
   sodipodi:docname="biedronka.svg"
   width="500"
   height="500"
   inkscape:version="0.92.1 r15371"
   inkscape:export-filename="F:\00.Github_OSM\quick_shops\qshops\biedronka.png"
   inkscape:export-xdpi="3.072"
   inkscape:export-ydpi="3.072"><metadata
     id="metadata19"><rdf:RDF><cc:Work
         rdf:about=""><dc:format>image/svg+xml</dc:format><dc:type
           rdf:resource="http://purl.org/dc/dcmitype/StillImage" /><dc:title></dc:title></cc:Work></rdf:RDF></metadata><defs
     id="defs17" /><sodipodi:namedview
     inkscape:document-rotation="0"
     inkscape:snap-midpoints="true"
     inkscape:snap-smooth-nodes="true"
     pagecolor="#ffffff"
     bordercolor="#666666"
     borderopacity="1"
     objecttolerance="10"
     gridtolerance="10"
     guidetolerance="10"
     inkscape:pageopacity="0"
     inkscape:pageshadow="2"
     inkscape:window-width="1920"
     inkscape:window-height="1051"
     id="namedview15"
     showgrid="false"
     inkscape:snap-global="true"
     showguides="true"
     inkscape:guide-bbox="true"
     borderlayer="true"
     inkscape:snap-page="true"
     inkscape:zoom="1.4142136"
     inkscape:cx="397.59131"
     inkscape:cy="275.93649"
     inkscape:window-x="-9"
     inkscape:window-y="-9"
     inkscape:window-maximized="1"
     inkscape:current-layer="Layer_1" /><style
     type="text/css"
     id="style2"><![CDATA[
	.st0{fill:#393939;}
	.st1{fill:#D8453E;}
]]></style><style
     id="style21"
     type="text/css"><![CDATA[
	.st0{fill-rule:evenodd;clip-rule:evenodd;fill:#F6C32E;}
	.st1{fill:#393939;}
]]></style><g
     transform="matrix(1.9166682,0,0,1.9157622,-1088.4018,-203.10989)"
     id="g4616"><path
       inkscape:connector-curvature="0"
       style="opacity:1;vector-effect:none;fill:#214478;fill-opacity:1;fill-rule:nonzero;stroke:none;stroke-width:5.14291811;stroke-linecap:butt;stroke-linejoin:miter;stroke-miterlimit:2;stroke-dasharray:none;stroke-dashoffset:0;stroke-opacity:1;paint-order:markers fill stroke"
       d="m 698.29688,106.05078 c -72.03774,-4.3e-4 -130.43598,58.39781 -130.43555,130.43555 -2.5e-4,42.03734 13.69614,72.92733 44.57422,96.78125 l 0.98047,-3.90039 0.008,0.006 6.07617,-23.24805 12.25,9.9375 0.87305,26.54297 -0.0488,4.77344 c 21.61484,15.89563 36.83471,19.54313 65.72266,19.54297 72.03696,-6.6e-4 130.43402,-58.39857 130.43359,-130.43555 4.3e-4,-72.03698 -58.39662,-130.43489 -130.43359,-130.43555 z m 0,5.87695 c 7.95137,1e-5 15.72195,0.7817 23.25,2.25977 -60.97101,49.13881 -98.50428,123.65611 -116.17383,203.19336 -18.25664,-21.76455 -29.28497,-50.01503 -29.28516,-80.89453 4e-4,-68.79186 54.71506,-124.5585 122.20899,-124.5586 z m 36.07226,5.52735 c 0.49652,0.15614 0.99645,0.3044 1.49024,0.4668 49.11585,16.15268 84.64616,63.12963 84.64648,118.56445 -4.1e-4,68.79186 -54.71509,124.55848 -122.20898,124.55859 -20.29109,-3e-5 -39.42206,-5.04953 -56.26368,-13.96875 -10.04698,-121.60268 55.42008,-193.78181 92.33594,-229.62109 z"
       id="path4500" /><circle
       style="opacity:1;vector-effect:none;fill:#214478;fill-opacity:1;fill-rule:nonzero;stroke:none;stroke-width:4.70366669;stroke-linecap:butt;stroke-linejoin:miter;stroke-miterlimit:2;stroke-dasharray:none;stroke-dashoffset:0;stroke-opacity:1;paint-order:markers fill stroke"
       id="path4511"
       cx="705.25"
       cy="231.375"
       r="28.5" /><ellipse
       style="opacity:1;vector-effect:none;fill:#214478;fill-opacity:1;fill-rule:nonzero;stroke:none;stroke-width:5.19624281;stroke-linecap:butt;stroke-linejoin:miter;stroke-miterlimit:2;stroke-dasharray:none;stroke-dashoffset:0;stroke-opacity:1;paint-order:markers fill stroke"
       id="path4513"
       ry="21.25"
       rx="27.875"
       cy="314.25"
       cx="715.625" /><ellipse
       cx="627.37195"
       cy="887.40405"
       rx="24.327122"
       ry="15.22528"
       id="ellipse4515"
       style="opacity:1;vector-effect:none;fill:#214478;fill-opacity:1;fill-rule:nonzero;stroke:none;stroke-width:4.1089468;stroke-linecap:butt;stroke-linejoin:miter;stroke-miterlimit:2;stroke-dasharray:none;stroke-dashoffset:0;stroke-opacity:1;paint-order:markers fill stroke"
       transform="matrix(0.58970751,-0.8076169,0.47910414,0.87775807,0,0)" /><ellipse
       transform="matrix(0.15109863,-0.98851869,0.91954593,0.39298255,0,0)"
       style="opacity:1;vector-effect:none;fill:#214478;fill-opacity:1;fill-rule:nonzero;stroke:none;stroke-width:3.6707263;stroke-linecap:butt;stroke-linejoin:miter;stroke-miterlimit:2;stroke-dasharray:none;stroke-dashoffset:0;stroke-opacity:1;paint-order:markers fill stroke"
       id="ellipse4517"
       ry="15.605642"
       rx="18.941631"
       cy="826.66132"
       cx="134.65964" /><ellipse
       cx="303.52432"
       cy="787.28448"
       rx="22.874453"
       ry="10.753455"
       id="ellipse4519"
       style="opacity:1;vector-effect:none;fill:#214478;fill-opacity:1;fill-rule:nonzero;stroke:none;stroke-width:3.34851193;stroke-linecap:butt;stroke-linejoin:miter;stroke-miterlimit:2;stroke-dasharray:none;stroke-dashoffset:0;stroke-opacity:1;paint-order:markers fill stroke"
       transform="matrix(0.06740291,-0.99772584,0.71888331,0.69513076,0,0)" /><ellipse
       cy="-270.16568"
       cx="592.59979"
       id="circle4521"
       style="opacity:1;vector-effect:none;fill:#214478;fill-opacity:1;fill-rule:nonzero;stroke:none;stroke-width:3.73527622;stroke-linecap:butt;stroke-linejoin:miter;stroke-miterlimit:2;stroke-dasharray:none;stroke-dashoffset:0;stroke-opacity:1;paint-order:markers fill stroke"
       rx="19.375"
       ry="26.4375"
       transform="rotate(40.878811)" /><ellipse
       transform="matrix(0.90544708,0.42445917,-0.86365764,0.50407884,0,0)"
       ry="18.532681"
       rx="10.406806"
       style="opacity:1;vector-effect:none;fill:#214478;fill-opacity:1;fill-rule:nonzero;stroke:none;stroke-width:2.2920258;stroke-linecap:butt;stroke-linejoin:miter;stroke-miterlimit:2;stroke-dasharray:none;stroke-dashoffset:0;stroke-opacity:1;paint-order:markers fill stroke"
       id="ellipse4523"
       cx="539.01917"
       cy="-186.06529" /></g></svg>