<?xml version="1.0" encoding="UTF-8" standalone="no"?>
<svg
   xmlns:dc="http://purl.org/dc/elements/1.1/"
   xmlns:cc="http://creativecommons.org/ns#"
   xmlns:rdf="http://www.w3.org/1999/02/22-rdf-syntax-ns#"
   xmlns:svg="http://www.w3.org/2000/svg"
   xmlns="http://www.w3.org/2000/svg"
   xmlns:sodipodi="http://sodipodi.sourceforge.net/DTD/sodipodi-0.dtd"
   xmlns:inkscape="http://www.inkscape.org/namespaces/inkscape"
   sodipodi:docname="dino.svg"
   inkscape:version="1.0 (4035a4fb49, 2020-05-01)"
   id="svg8"
   version="1.1"
   viewBox="0 0 132.29166 132.29167"
   height="500"
   width="500">
  <defs
     id="defs2" />
  <sodipodi:namedview
     inkscape:window-maximized="0"
     inkscape:window-y="0"
     inkscape:window-x="64"
     inkscape:window-height="1033"
     inkscape:window-width="1815"
     units="px"
     showgrid="false"
     inkscape:document-rotation="0"
     inkscape:current-layer="layer1"
     inkscape:document-units="mm"
     inkscape:cy="522.31121"
     inkscape:cx="159.43794"
     inkscape:zoom="0.7"
     inkscape:pageshadow="2"
     inkscape:pageopacity="0.0"
     borderopacity="1.0"
     bordercolor="#666666"
     pagecolor="#ffffff"
     id="base" />
  <metadata
     id="metadata5">
    <rdf:RDF>
      <cc:Work
         rdf:about="">
        <dc:format>image/svg+xml</dc:format>
        <dc:type
           rdf:resource="http://purl.org/dc/dcmitype/StillImage" />
        <dc:title></dc:title>
      </cc:Work>
    </rdf:RDF>
  </metadata>
  <g
     id="layer1"
     inkscape:groupmode="layer"
     inkscape:label="Warstwa 1">
    <g
       transform="matrix(1.391496,0,0,1.391496,-0.76395502,-28.97871)"
       style="fill:#214478;fill-opacity:1"
       id="g871">
      <path
         id="path847"
         style="fill:#214478;fill-opacity:1;stroke-width:0.999999"
         d="m 84.109375,174.33203 v 30 c 0,16.5 -0.268094,30 -0.595703,30 -0.327602,0 -1.943938,-0.95943 -3.591797,-2.13281 -4.723431,-3.36338 -14.205951,-5.86782 -22.152344,-5.85156 -25.009989,0.0516 -40.634259,13.01459 -46.179687,38.3125 -2.1732815,9.91435 -1.6392018,35.81403 0.93164,45.17187 4.733269,17.22907 14.610795,28.17977 28.333985,31.41406 14.389058,3.39126 30.401378,-0.72697 41.378906,-10.64453 l 3.875,-3.50195 v 6.61719 6.61523 h 26.000005 26 v -83 -83 h -27 z M 73.617188,269.6875 c 1.807511,0.0526 3.704152,0.52945 5.730468,1.42578 5.07936,2.24684 8.708379,7.25272 9.423828,12.99805 0.603912,4.84961 -2.963518,11.90792 -7.560546,14.96289 -9.410382,6.25369 -22.101563,-1.22466 -22.101563,-13.02344 0,-5.66141 1.761179,-9.49679 5.994141,-13.05859 2.732768,-2.29948 5.501152,-3.39229 8.513672,-3.30469 z"
         transform="scale(0.26458333)" />
      <path
         id="path863"
         style="fill:#214478;fill-opacity:1;stroke-width:0.999999"
         d="m 191.68164,175.35547 c -23.28743,0.0842 -34.90503,26.74146 -18.71094,42.93555 2.64118,2.64118 6.71625,5.46744 9.19141,6.375 6.05465,2.22001 17.09071,1.68472 22.44727,-1.0879 15.80725,-8.18207 19.23822,-28.3477 6.91992,-40.66601 -5.22927,-5.22927 -11.42178,-7.58726 -19.84766,-7.55664 z m -8.73437,4.00781 c 0.68539,-0.009 1.2224,0.25785 1.5664,0.81445 0.28758,0.46532 -1.2526,2.0101 -3.42383,3.43165 -4.73572,3.10056 -6.71771,1.6126 -2.58593,-1.94141 1.74758,-1.50321 3.30103,-2.28888 4.44336,-2.30469 z"
         transform="scale(0.26458333)" />
      <path
         style="fill:#214478;fill-opacity:1;stroke-width:0.264583"
         d="M 60.618476,75.229657 V 60.41299 h 6.746874 6.746876 v 1.899417 1.899418 l 1.2067,-1.259383 c 0.72155,-0.753049 1.91827,-1.59649 2.97656,-2.097854 1.70566,-0.808056 1.89486,-0.838473 5.21572,-0.838473 3.41015,0 3.46498,0.0096 5.29166,0.926042 2.1132,1.060188 3.28855,2.402086 4.00783,4.575738 0.39653,1.198298 0.46849,2.88244 0.55341,12.952908 l 0.0976,11.575525 h -7.16119 -7.16121 v -8.945267 c 0,-6.959929 -0.077,-9.050531 -0.34682,-9.419567 -0.21145,-0.289184 -0.82321,-0.528 -1.56738,-0.611881 -1.05849,-0.119305 -1.31107,-0.04707 -1.90214,0.544 l -0.68157,0.681574 v 8.87557 8.875571 h -7.011462 -7.011458 z"
         id="path855" />
      <path
         style="fill:#214478;fill-opacity:1;stroke-width:0.264583"
         d="m 41.568476,75.361949 c 0,-16.553339 -0.183062,-15.36508 2.122776,-13.778942 1.757394,1.208873 2.960047,1.589632 5.020974,1.589632 2.096024,0 3.357896,-0.409606 4.908735,-1.593389 0.649692,-0.495922 1.418354,-0.901677 1.708137,-0.901677 0.519787,0 0.526878,0.19766 0.526878,14.684376 v 14.684379 h -7.14375 -7.14375 z"
         id="path853" />
    </g>
  </g>
</svg>
