<?xml version="1.0" encoding="UTF-8" standalone="no"?>
<svg
   xmlns:dc="http://purl.org/dc/elements/1.1/"
   xmlns:cc="http://creativecommons.org/ns#"
   xmlns:rdf="http://www.w3.org/1999/02/22-rdf-syntax-ns#"
   xmlns:svg="http://www.w3.org/2000/svg"
   xmlns="http://www.w3.org/2000/svg"
   xmlns:sodipodi="http://sodipodi.sourceforge.net/DTD/sodipodi-0.dtd"
   xmlns:inkscape="http://www.inkscape.org/namespaces/inkscape"
   inkscape:export-ydpi="6.1440001"
   inkscape:export-xdpi="6.1440001"
   inkscape:export-filename="D:\GitHub\josm_presets\Josm_Presets\Qshops\orlen.png"
   inkscape:version="1.0 (4035a4fb49, 2020-05-01)"
   height="500"
   width="500"
   sodipodi:docname="orlen.svg"
   xml:space="preserve"
   viewBox="0 0 500.00001 500"
   y="0px"
   x="0px"
   id="Layer_1"
   version="1.1"><metadata
     id="metadata19"><rdf:RDF><cc:Work
         rdf:about=""><dc:format>image/svg+xml</dc:format><dc:type
           rdf:resource="http://purl.org/dc/dcmitype/StillImage" /><dc:title></dc:title></cc:Work></rdf:RDF></metadata><defs
     id="defs17" /><sodipodi:namedview
     inkscape:current-layer="Layer_1"
     inkscape:window-maximized="1"
     inkscape:window-y="-9"
     inkscape:window-x="-9"
     inkscape:cy="275.93649"
     inkscape:cx="246.27754"
     inkscape:zoom="1.4142136"
     inkscape:snap-page="true"
     borderlayer="true"
     inkscape:guide-bbox="true"
     showguides="true"
     inkscape:snap-global="true"
     showgrid="false"
     id="namedview15"
     inkscape:window-height="1051"
     inkscape:window-width="1920"
     inkscape:pageshadow="2"
     inkscape:pageopacity="0"
     guidetolerance="10"
     gridtolerance="10"
     objecttolerance="10"
     borderopacity="1"
     bordercolor="#666666"
     pagecolor="#ffffff"
     inkscape:snap-smooth-nodes="true"
     inkscape:snap-midpoints="true"
     inkscape:document-rotation="0" /><style
     id="style2"
     type="text/css"><![CDATA[
	.st0{fill:#393939;}
	.st1{fill:#D8453E;}
]]></style><style
     type="text/css"
     id="style21"><![CDATA[
	.st0{fill-rule:evenodd;clip-rule:evenodd;fill:#F6C32E;}
	.st1{fill:#393939;}
]]></style><g
     transform="translate(-0.00747802,-0.79008515)"
     id="g872"><path
       style="fill:#214478;fill-opacity:1;stroke-width:1.50785"
       d="m 215.85618,214.17234 c -7.30472,-3.56154 -14.66639,-11.43989 -17.62302,-18.85984 -2.70729,-6.79428 -2.93972,-19.20834 -0.50463,-26.95313 L 199.57081,162.5 h 30.21434 30.21435 l 1.68545,6.04066 c 7.02501,25.17768 -8.51877,48.71781 -32.09935,48.61253 -4.35918,-0.0195 -10.30196,-1.30972 -13.72942,-2.98085 z"
       id="path867" /><path
       style="fill:#214478;fill-opacity:1;stroke-width:1.50785"
       d="m 414.70288,249.84695 c -3.60142,-0.75523 -10.80427,-3.58783 -16.00632,-6.29465 -8.06586,-4.19697 -14.92084,-10.72905 -46.56384,-44.37044 -22.57048,-23.99591 -39.51068,-40.74609 -43.24544,-42.76034 -14.55778,-7.85141 -16.45592,-7.98402 -114.27917,-7.98402 h -91.43278 l 0.88728,-5.85938 c 0.488,-3.22265 3.77124,-12.25739 7.29608,-20.07719 5.1559,-11.43829 8.34243,-16.17296 16.29971,-24.218747 5.44,-5.500513 13.8092,-12.226891 18.59823,-14.947506 16.9864,-9.649855 20.32869,-10.018666 89.87746,-9.91766 69.59958,0.101078 72.61418,0.446128 96.26458,11.018372 19.98903,8.935534 26.78837,15.169147 88.84438,81.452271 l 59.65203,63.71542 -5.08503,4.59597 c -15.63639,14.13251 -39.36194,20.20798 -61.10717,15.6479 z"
       id="path865" /><path
       style="fill:#214478;fill-opacity:1;stroke-width:1.50785"
       d="m 212.4412,338.257 c -68.63627,-73.76175 -85.10735,-90.68072 -91.67256,-94.16538 -7.66244,-4.06703 -9.11801,-4.27012 -34.189628,-4.77062 -28.621987,-0.57136 -33.306454,0.24658 -42.538068,7.42741 -6.727164,5.23275 -13.242922,17.99536 -13.834982,27.099 -0.332905,5.11881 -0.617295,5.53481 -2.200214,3.21846 -8.450076,-12.36532 -11.533815,-41.32298 -6.351525,-59.64359 6.134574,-21.68717 22.311017,-40.75084 42.198788,-49.73059 9.182772,-4.14622 10.692158,-4.34428 32.906149,-4.31788 18.26966,0.0217 25.31815,0.65285 32.7402,2.93163 12.00258,3.68512 28.30999,11.6045 37.3597,18.14301 3.8618,2.79021 35.96885,36.03532 71.34898,73.87803 67.67787,72.38849 70.02423,75.33936 75.66423,95.15775 6.19285,21.76108 0.23233,52.00614 -13.71386,69.58739 l -4.04781,5.10286 z"
       id="path861" /></g></svg>
