<?xml version="1.0" encoding="UTF-8" standalone="no"?>
<svg
   xmlns:dc="http://purl.org/dc/elements/1.1/"
   xmlns:cc="http://creativecommons.org/ns#"
   xmlns:rdf="http://www.w3.org/1999/02/22-rdf-syntax-ns#"
   xmlns:svg="http://www.w3.org/2000/svg"
   xmlns="http://www.w3.org/2000/svg"
   xmlns:sodipodi="http://sodipodi.sourceforge.net/DTD/sodipodi-0.dtd"
   xmlns:inkscape="http://www.inkscape.org/namespaces/inkscape"
   inkscape:export-ydpi="6.1399999"
   inkscape:export-xdpi="6.1399999"
   inkscape:export-filename="D:\GitHub\quick_shops\quick_shop\qshop_32.png"
   inkscape:version="0.92.1 r15371"
   height="500"
   width="500"
   sodipodi:docname="qshops.svg"
   xml:space="preserve"
   viewBox="0 0 500.00001 500"
   y="0px"
   x="0px"
   id="Layer_1"
   version="1.1"><metadata
     id="metadata19"><rdf:RDF><cc:Work
         rdf:about=""><dc:format>image/svg+xml</dc:format><dc:type
           rdf:resource="http://purl.org/dc/dcmitype/StillImage" /><dc:title></dc:title></cc:Work></rdf:RDF></metadata><defs
     id="defs17" /><sodipodi:namedview
     inkscape:current-layer="Layer_1"
     inkscape:window-maximized="1"
     inkscape:window-y="-9"
     inkscape:window-x="-9"
     inkscape:cy="250"
     inkscape:cx="103.75935"
     inkscape:zoom="1.2034957"
     inkscape:snap-page="true"
     borderlayer="true"
     inkscape:guide-bbox="true"
     showguides="true"
     inkscape:snap-global="true"
     showgrid="false"
     id="namedview15"
     inkscape:window-height="1051"
     inkscape:window-width="1920"
     inkscape:pageshadow="2"
     inkscape:pageopacity="0"
     guidetolerance="10"
     gridtolerance="10"
     objecttolerance="10"
     borderopacity="1"
     bordercolor="#666666"
     pagecolor="#ffffff"
     inkscape:document-rotation="0" /><style
     id="style2"
     type="text/css"><![CDATA[
	.st0{fill:#393939;}
	.st1{fill:#D8453E;}
]]></style><style
     type="text/css"
     id="style21"><![CDATA[
	.st0{fill-rule:evenodd;clip-rule:evenodd;fill:#F6C32E;}
	.st1{fill:#393939;}
]]></style><g
     id="g4487"
     transform="matrix(1.0641952,0,0,1.0641952,-16.048802,-16.048803)"><polygon
       class="st0"
       points="56.79,0.43 25.81,59.24 46.91,59.46 13.94,122.88 88.31,41.56 60.53,41.56 88.95,0 "
       id="polygon25"
       transform="matrix(3.8674712,0.08712364,-0.08712364,3.8674712,42.65071,8.4699415)"
       style="clip-rule:evenodd;fill:#3771c8;fill-rule:evenodd" /><path
       id="path23"
       style="fill:#214478;stroke-width:3.55375004"
       d="M 220.33789,46.091797 C 179.60507,52.247976 142.89039,70.971284 114.33594,98.267578 78.007123,132.99568 54.943986,181.56676 53.722656,235.7832 c -1.221374,54.21646 19.629297,103.7747 54.357424,140.10352 2.25731,2.36139 4.58877,4.65492 6.95508,6.91211 L 135.3125,345.78906 C 108.94234,317.14882 93.208292,278.688 94.154297,236.69336 c 0.969236,-43.02498 19.291643,-81.57042 48.136723,-109.14453 14.53155,-13.89125 31.77309,-25.02009 50.8164,-32.482424 z m 147.29102,36.875 -23.59766,32.916013 c 6.63996,5.055 12.87773,10.60026 18.64258,16.63086 27.53938,28.80877 44.10595,68.17619 43.13672,111.20117 -0.96924,43.02498 -19.25648,81.57238 -48.10157,109.14649 -4.10947,3.93336 -8.43988,7.63316 -12.95898,11.09961 l -2.36133,1.77734 c -26.77042,19.74181 -60.05447,31.102 -95.88086,30.29492 -14.1048,-0.31775 -27.70706,-2.47374 -40.5957,-6.2832 l -30.47656,32.1582 c 21.69665,8.87774 45.32574,14.03236 70.16015,14.5918 41.78281,0.94128 80.8108,-11.25375 113.14844,-32.80664 l 23.23438,32.26367 31.53906,-23.74023 -24.22656,-33.64063 C 423.52067,344.12608 445.09716,297.01308 446.27734,244.625 447.49867,190.40856 426.64805,140.8503 391.91992,104.52148 384.45417,96.67526 376.33307,89.490135 367.62891,82.966797 Z"
       inkscape:connector-curvature="0" /></g></svg>