<?xml version="1.0" encoding="UTF-8" standalone="no"?>
<svg
   xmlns:dc="http://purl.org/dc/elements/1.1/"
   xmlns:cc="http://creativecommons.org/ns#"
   xmlns:rdf="http://www.w3.org/1999/02/22-rdf-syntax-ns#"
   xmlns:svg="http://www.w3.org/2000/svg"
   xmlns="http://www.w3.org/2000/svg"
   xmlns:sodipodi="http://sodipodi.sourceforge.net/DTD/sodipodi-0.dtd"
   xmlns:inkscape="http://www.inkscape.org/namespaces/inkscape"
   inkscape:version="1.0.2 (e86c870879, 2021-01-15, custom)"
   height="500"
   width="500"
   sodipodi:docname="rossmann.svg"
   xml:space="preserve"
   viewBox="0 0 499.99999 499.99999"
   y="0px"
   x="0px"
   id="netto_logo_v4_svg"
   version="1.1"
   inkscape:export-filename="D:\GitHub\Josm_Presets\Qshops\rossmann.png"
   inkscape:export-xdpi="6.1399999"
   inkscape:export-ydpi="6.1399999"><metadata
   id="metadata25"><rdf:RDF><cc:Work
       rdf:about=""><dc:format>image/svg+xml</dc:format><dc:type
         rdf:resource="http://purl.org/dc/dcmitype/StillImage" /><dc:title>Netto Logo 4</dc:title></cc:Work></rdf:RDF></metadata><defs
   id="defs23" /><sodipodi:namedview
   inkscape:current-layer="netto_logo_v4_svg"
   inkscape:window-maximized="0"
   inkscape:window-y="79"
   inkscape:window-x="623"
   inkscape:cy="583.25039"
   inkscape:cx="-231.90351"
   inkscape:zoom="0.60174787"
   showgrid="false"
   id="namedview21"
   inkscape:window-height="1198"
   inkscape:window-width="1560"
   inkscape:pageshadow="2"
   inkscape:pageopacity="0"
   guidetolerance="10"
   gridtolerance="10"
   objecttolerance="10"
   borderopacity="1"
   bordercolor="#666666"
   pagecolor="#ffffff"
   inkscape:document-rotation="0" />
<style
   id="style2"
   type="text/css">
	.st0{fill:#242424;}
	.st1{fill:#FAD85B;}
</style>
<title
   id="title4">Netto Logo 4</title>







<path
   style="fill:#214478;fill-opacity:1"
   d="m 226.21093,488.68392 c -56.3139,-6.247 -105.2549,-29.4085 -144.591802,-68.42873 -27.1746,-26.9558 -46.011,-56.80772 -58.0515,-92 -20.8904997,-61.05952 -16.7769997,-126.27636 11.6057,-184 12.9525,-26.34236 26.3434,-44.703801 48.1913,-66.079491 37.432602,-36.62354 83.559502,-58.93129 136.346302,-65.9393 15.7945,-2.0969 45.2055,-2.0969 61,0 80.9729,10.75002 149.3376,59.88721 185.0694,133.018791 11.4644,23.46394 18.845,48.1837 22.542,75.5 1.8657,13.78498 1.6058,46.82206 -0.4839,61.5 -6.674,46.87886 -25.3845,88.43631 -55.8287,124 -37.3424,43.62193 -89.1504,72.21513 -146.7988,81.01933 -12.5566,1.9176 -47.0009,2.7404 -59,1.4094 z m 55.9507,-39.5486 c 5.1979,-0.7965 9.6782,-1.6757 9.9563,-1.9538 0.2781,-0.2781 -20.6218,-21.63674 -46.4442,-47.46358 l -46.95,-46.9579 15.2436,-30.50671 c 8.384,-16.77869 15.2436,-30.74248 15.2436,-31.03064 0,-0.28817 -6.1451,-0.39874 -13.6558,-0.24572 l -13.6559,0.27822 -17.0941,33.70419 -17.0942,33.7042 46.5,46.56135 46.5,46.56139 6,-0.6014 c 3.3,-0.3307 10.2528,-1.2531 15.4507,-2.0496 z m -113.9188,-46.41721 -45.4681,-44.92855 10.9299,-21.31785 10.9299,-21.31784 -6.5277,-6.44934 c -7.7525,-7.65933 -12.1524,-13.88836 -15.7359,-22.2775 -2.4453,-5.7246 -2.6358,-7.22257 -2.6281,-20.67184 0.01,-15.72249 1.4043,-21.77197 6.9572,-30.1629 1.381,-2.08682 2.5109,-4.02887 2.5109,-4.31566 0,-0.28679 -5.625,-0.52144 -12.5,-0.52144 h -12.5 v 46.5 c 0,25.575 -0.24,46.5 -0.5332,46.5 -1.2115,0 -11.209002,-5.40555 -14.325602,-7.74577 -6.9772,-5.23891 -7.0973,-6.08935 -7.0973,-50.25423 0,-44.05735 -0.011,-43.97983 7.084,-50.68867 6.4464,-6.09571 0.8606,-5.76799 107.575102,-6.31133 l 98.203,-0.5 -7.9627,-19 c -4.3795,-10.45 -10.4783,-24.9625 -13.5529,-32.25 l -5.5902,-13.25 h -94.7218 -94.721702 l -4.2248,7.38396 c -21.6648,37.86521 -30.5319,86.62807 -23.5746,129.64411 9.3258,57.65988 41.9526,107.59117 90.976102,139.22782 9.4158,6.07638 26.8711,14.70782 38.6237,19.09899 10.8934,4.07016 27.079,8.55345 30.8429,8.54335 2.0325,0 -6.0018,-8.40768 -42.9681,-44.93531 z m 170.9945,28.14538 c 46.8247,-23.31101 82.0712,-62.36788 100.2685,-111.1083 20.3612,-54.53605 15.251,-118.34677 -13.514,-168.75 l -4.1376,-7.25 h -28.3216 -28.3217 v 57 57 h 18.8508 c 19.9656,0 23.331,0.55363 29.008,4.77202 6.7947,5.04884 9.1325,16.96578 5.3046,27.04015 -3.3941,8.93247 -23.552,52.18783 -24.3206,52.18783 -0.4182,0 -5.7053,-3.18284 -11.7491,-7.07297 -9.9102,-6.37875 -10.905,-7.28665 -10.1362,-9.25 0.4689,-1.19737 3.8203,-9.07921 7.4475,-17.5152 3.6273,-8.43599 6.595,-15.74849 6.595,-16.25 0,-0.50151 -5.2875,-0.90317 -11.75,-0.89259 l -11.75,0.0192 -11.3492,25.89311 -11.3492,25.8931 -10.1508,-6.56635 c -5.5829,-3.61149 -10.755,-7.11732 -11.4935,-7.79073 -1.1092,-1.01154 -0.1097,-4.20717 5.75,-18.383 3.901,-9.43718 7.0927,-17.59903 7.0927,-18.13738 0,-0.62121 -10.0812,-0.88171 -27.5928,-0.71301 l -27.5929,0.26582 -16.4387,31.46397 -16.4387,31.46397 41.277,41.28603 c 22.7024,22.70732 41.6597,41.28603 42.1275,41.28603 0.4677,0 6.176,-2.65126 12.685,-5.8917 z m -35.3096,-325.51454 c 7.2186,-14.492061 10.8503,-19.102371 15.7754,-20.026321 5.2924,-0.99286 11.4302,1.11963 15.7216,5.41101 5.1541,5.15412 5.2232,10.217981 0.2736,20.046511 l -3.5125,6.97504 h 35.0721 35.0721 l -4.1728,-4.94861 c -4.4828,-5.31633 -20.2246,-19.420081 -27.8064,-24.912941 -36.4336,-26.39544 -76.0089,-39.36151 -120.1399,-39.36151 -30.9032,0 -57.3524,5.75734 -85.2608,18.5592 -21.9984,10.09081 -49.6754,30.28601 -62.7396,45.779401 l -4.118702,4.88446 h 99.828102 99.828 z"
   id="path848" /></svg>
