<?xml version="1.0" encoding="UTF-8" standalone="no"?>
<svg
   xmlns:dc="http://purl.org/dc/elements/1.1/"
   xmlns:cc="http://creativecommons.org/ns#"
   xmlns:rdf="http://www.w3.org/1999/02/22-rdf-syntax-ns#"
   xmlns:svg="http://www.w3.org/2000/svg"
   xmlns="http://www.w3.org/2000/svg"
   xmlns:sodipodi="http://sodipodi.sourceforge.net/DTD/sodipodi-0.dtd"
   xmlns:inkscape="http://www.inkscape.org/namespaces/inkscape"
   inkscape:export-ydpi="3.0699999"
   inkscape:export-xdpi="3.0699999"
   inkscape:export-filename="F:\00.Github_OSM\quick_shops\qshops\zabka.png"
   inkscape:version="0.92.1 r15371"
   height="500"
   width="500"
   sodipodi:docname="zabka.svg"
   xml:space="preserve"
   viewBox="0 0 500.00001 500"
   y="0px"
   x="0px"
   id="Layer_1"
   version="1.1"><metadata
     id="metadata19"><rdf:RDF><cc:Work
         rdf:about=""><dc:format>image/svg+xml</dc:format><dc:type
           rdf:resource="http://purl.org/dc/dcmitype/StillImage" /><dc:title></dc:title></cc:Work></rdf:RDF></metadata><defs
     id="defs17" /><sodipodi:namedview
     inkscape:current-layer="Layer_1"
     inkscape:window-maximized="1"
     inkscape:window-y="-9"
     inkscape:window-x="-9"
     inkscape:cy="250"
     inkscape:cx="115.39213"
     inkscape:zoom="1.2034957"
     inkscape:snap-page="true"
     borderlayer="true"
     inkscape:guide-bbox="true"
     showguides="true"
     inkscape:snap-global="true"
     showgrid="false"
     id="namedview15"
     inkscape:window-height="1051"
     inkscape:window-width="1920"
     inkscape:pageshadow="2"
     inkscape:pageopacity="0"
     guidetolerance="10"
     gridtolerance="10"
     objecttolerance="10"
     borderopacity="1"
     bordercolor="#666666"
     pagecolor="#ffffff"
     inkscape:document-rotation="0" /><style
     id="style2"
     type="text/css"><![CDATA[
	.st0{fill:#393939;}
	.st1{fill:#D8453E;}
]]></style><style
     type="text/css"
     id="style21"><![CDATA[
	.st0{fill-rule:evenodd;clip-rule:evenodd;fill:#F6C32E;}
	.st1{fill:#393939;}
]]></style><g
     id="g4522"
     transform="matrix(2.2254659,0,0,2.2254659,1272.9914,-49.612228)"><path
       id="path4514"
       d="m -572.01116,198.28038 4.03602,-20.85279 c 65.92174,41.70559 150.67825,41.70559 216.59998,0 l 4.03602,20.85279 c -65.92173,51.79565 -158.75029,51.79565 -224.67202,0 z"
       style="fill:#214478;fill-opacity:1;stroke-width:6.72670746"
       inkscape:connector-curvature="0" /><path
       id="path4506"
       d="M -451.60352,32.130859 V 159.26562 c 4.03603,1.34534 8.07336,2.01874 12.10938,2.69141 6.72671,2.01802 13.45218,3.36169 20.85156,4.70703 10.76273,1.34534 21.52633,7e-5 32.28906,-3.36328 16.1441,-4.7087 28.25152,-18.16174 30.26954,-34.97851 1.34534,-10.09006 1.34578,-21.52518 -2.01758,-31.615239 -2.69068,-9.417391 -8.07249,-18.16276 -16.14453,-24.216797 -7.39938,-5.381365 -15.47208,-8.072265 -24.2168,-8.072265 -7.39938,-0.672671 -15.46976,0.674551 -22.86914,3.365234 -0.67267,0 -2.01874,0.671875 -2.69141,0.671875 V 32.130859 Z m 44.06055,54.738282 c 5.54954,-0.08408 11.09795,1.430012 15.80664,4.457031 3.36335,2.690683 5.38318,6.053817 6.72852,10.089848 2.69069,8.74472 3.36256,18.83456 0.67187,28.25195 -2.01801,6.72671 -7.40024,12.10778 -14.12695,13.45312 -8.07205,2.01802 -16.81546,1.34498 -24.21484,-1.3457 0,0 -0.67383,8e-4 -0.67383,-0.67187 V 91.998047 c 4.70869,-3.363354 10.25906,-5.044822 15.80859,-5.128906 z"
       style="fill:#214478;fill-opacity:1;stroke-width:6.72670746"
       inkscape:connector-curvature="0" /><path
       id="path4502"
       d="m -521.39258,64.166016 c -2.52251,0 -5.04584,0.08379 -7.56836,0.251953 -8.74472,0.67267 -17.48813,4.70884 -24.21484,11.435547 -6.05404,6.726707 -10.76404,14.800201 -12.10938,23.544922 -1.34534,6.726702 -2.01757,13.452972 -2.01757,20.179682 0,8.74473 2.01866,16.81743 6.05468,24.2168 3.36336,6.05404 8.07096,11.43548 14.125,14.79883 13.45341,7.39938 28.92585,10.08912 43.72461,7.39844 10.76273,-1.34534 20.85251,-4.70855 31.61524,-6.72657 V 75.181641 c -1.34534,-0.67267 -3.36284,-2.018736 -5.38086,-2.691407 -6.7267,-2.690683 -14.12601,-4.707393 -21.52539,-6.052734 -7.56755,-1.513509 -15.13558,-2.271484 -22.70313,-2.271484 z m 5.64453,22.220703 c 5.20269,0.06306 10.49854,1.071235 15.03907,3.59375 0.67267,0 0.67303,0.671875 1.3457,0.671875 l 0.67383,51.123046 c -9.41739,3.36336 -19.50839,4.03603 -28.92578,0 -4.7087,-2.01801 -8.07184,-5.38035 -10.08985,-10.76172 -3.36336,-10.76273 -3.36415,-21.52633 0.67188,-32.289061 2.69068,-6.726707 9.41782,-11.434752 16.14453,-12.107421 1.68167,-0.168168 3.40639,-0.25149 5.14062,-0.230469 z"
       style="fill:#214478;fill-opacity:1;stroke-width:6.72670746"
       inkscape:connector-curvature="0" /></g></svg>