<?xml version="1.0" encoding="UTF-8" standalone="no"?>
<svg
   xmlns:dc="http://purl.org/dc/elements/1.1/"
   xmlns:cc="http://creativecommons.org/ns#"
   xmlns:rdf="http://www.w3.org/1999/02/22-rdf-syntax-ns#"
   xmlns:svg="http://www.w3.org/2000/svg"
   xmlns="http://www.w3.org/2000/svg"
   xmlns:sodipodi="http://sodipodi.sourceforge.net/DTD/sodipodi-0.dtd"
   xmlns:inkscape="http://www.inkscape.org/namespaces/inkscape"
   sodipodi:docname="card_icon.svg"
   inkscape:version="1.0 (4035a4fb49, 2020-05-01)"
   id="svg35"
   version="1.1"
   viewBox="0 0 132.29166 132.29167"
   height="500"
   width="500"
   inkscape:export-filename="D:\osm\josm_pay\card_icon_62.png"
   inkscape:export-xdpi="12.29"
   inkscape:export-ydpi="12.29">
  <defs
     id="defs29" />
  <sodipodi:namedview
     inkscape:window-maximized="1"
     inkscape:window-y="-9"
     inkscape:window-x="-9"
     inkscape:window-height="1051"
     inkscape:window-width="1920"
     inkscape:snap-global="true"
     units="px"
     showgrid="false"
     inkscape:document-rotation="0"
     inkscape:current-layer="layer1"
     inkscape:document-units="mm"
     inkscape:cy="278.86251"
     inkscape:cx="104.08461"
     inkscape:zoom="0.8310547"
     inkscape:pageshadow="2"
     inkscape:pageopacity="0.0"
     borderopacity="1.0"
     bordercolor="#666666"
     pagecolor="#ffffff"
     id="base"
     inkscape:snap-page="true" />
  <metadata
     id="metadata32">
    <rdf:RDF>
      <cc:Work
         rdf:about="">
        <dc:format>image/svg+xml</dc:format>
        <dc:type
           rdf:resource="http://purl.org/dc/dcmitype/StillImage" />
        <dc:title></dc:title>
      </cc:Work>
    </rdf:RDF>
  </metadata>
  <g
     id="layer1"
     inkscape:groupmode="layer"
     inkscape:label="Warstwa 1">
    <g
       transform="matrix(1.1386217,0.09204194,-0.09196786,1.1395389,-3.1297716,-4.3352787)"
       id="g942">
      <g
         id="g932"
         transform="matrix(0.8816002,0,0,0.8816002,-4.7161129,10.415635)">
        <rect
           transform="rotate(-17.041829)"
           style="fill:#ffffff;stroke-width:0.29015"
           id="rect919"
           width="101.24183"
           height="59.694477"
           x="8.1217718"
           y="33.782173"
           ry="10.665413" />
        <path
           style="fill:#80b3ff;stroke-width:0.00031623"
           id="path923"
           fill-rule="nonzero"
           fill="#808080"
           d="M 24.990808,26.092343 106.80558,1.0137307 c 2.60981,-0.7999838 5.30791,-0.45988019 7.55272,0.7312841 2.24491,1.1915498 4.03836,3.2360574 4.83811,5.8451276 L 131.82611,48.7924 c 0.79975,2.609069 0.45976,5.30755 -0.7314,7.552354 -1.19167,2.244542 -3.23607,4.038364 -5.84514,4.838119 L 43.434816,86.261481 c -2.609069,0.799756 -5.307433,0.460141 -7.552343,-0.7314 -2.244927,-1.191545 -4.038139,-3.235315 -4.838124,-5.845134 L 18.414656,38.48269 c -0.799871,-2.609445 -0.46026,-5.307803 0.731405,-7.552349 1.19128,-2.244427 3.235685,-4.038244 5.845496,-4.838228 z M 107.80763,4.2827618 25.992861,29.361374 c -1.707346,0.523352 -3.046271,1.699277 -3.828166,3.171809 -0.78141,1.472791 -1.005364,3.240827 -0.482013,4.948174 l 12.629694,41.202259 c 0.523235,1.706968 1.699531,3.045786 3.172067,3.827681 1.47328,0.781664 3.241317,1.005626 4.948285,0.48239 L 124.2475,57.915075 c 1.70696,-0.523232 3.04577,-1.699535 3.82756,-3.172442 0.78178,-1.472909 1.00563,-3.24132 0.48262,-4.947538 L 115.92799,8.5928301 c -0.52324,-1.7069667 -1.69917,-3.045897 -3.1722,-3.8280525 -1.47241,-0.7815202 -3.24083,-1.0053622 -4.94816,-0.4820158 z" />
      </g>
      <g
         id="g917">
        <rect
           ry="10.665413"
           y="37.778522"
           x="16.822027"
           height="59.694477"
           width="101.24183"
           id="rect911"
           style="fill:#ffffff;stroke-width:0.29015" />
        <rect
           y="49.657101"
           x="16.873638"
           height="14.008304"
           width="101.71939"
           id="rect909"
           style="fill:#0066ff;stroke-width:0.264583" />
        <path
           d="m 24.946866,36.267055 h 85.572154 c 2.72967,0 5.20962,1.1159 7.00677,2.912648 1.79713,1.797145 2.91265,4.277487 2.91265,7.00638 v 43.094491 c 0,2.728892 -1.11591,5.209243 -2.91265,7.006388 -1.79715,1.796744 -4.2775,2.912649 -7.00639,2.912649 H 24.947261 c -2.728891,0 -5.209242,-1.115511 -7.006376,-2.912649 C 16.143736,94.489817 15.02823,92.01025 15.02823,89.280574 V 46.186083 c 0,-2.729284 1.115506,-5.209631 2.912655,-7.00638 1.796746,-1.796748 4.277097,-2.912648 7.006765,-2.912648 z m 85.572154,3.419163 H 24.946866 c -1.785757,0 -3.410519,0.731893 -4.589637,1.910618 -1.178729,1.179115 -1.911008,2.803884 -1.911008,4.589642 V 89.28097 c 0,1.785362 0.732279,3.410131 1.911008,4.589249 1.179507,1.179116 2.804275,1.911402 4.589637,1.911402 h 85.572154 c 1.78535,0 3.41012,-0.732286 4.58924,-1.911402 1.17912,-1.179118 1.91141,-2.804276 1.91141,-4.588853 V 46.186867 c 0,-1.78536 -0.7319,-3.41013 -1.91102,-4.589641 -1.17872,-1.178724 -2.80389,-1.911008 -4.58963,-1.911008 z"
           fill="#808080"
           fill-rule="nonzero"
           id="path10"
           style="fill:#0066ff;stroke-width:0.00031623" />
      </g>
      <path
         d="M 97.853209,81.476059 C 97.466268,80.894494 97.235945,80.010057 97.18297,79.13023 97.13,78.255003 97.25322,77.354445 97.571064,76.733728 l 0.32245,-0.62993 0.551624,0.442218 5.243292,4.20568 c 0.2142,-0.787701 0.27984,-1.576556 0.2165,-2.3228 -0.0864,-1.008811 -0.52513,-2.101687 -1.04912,-2.816835 l 0.99269,-0.579263 c 0.64951,0.886739 1.10325,2.08096 1.20804,3.300516 0.099,1.148158 -0.0691,2.387287 -0.54932,3.59763 l -0.2879,0.725516 -0.6092,-0.488281 -5.22832,-4.194167 c -0.05413,0.333966 -0.0691,0.70939 -0.04607,1.08827 0.04144,0.693269 0.20729,1.366965 0.480225,1.776935 z m 9.978711,3.979966 c 1.29326,-2.022226 2.05217,-4.59723 2.05102,-6.59873 -0.001,-2.513964 -0.78885,-4.786091 -1.7919,-6.271667 l 1.0065,-0.574653 c 1.09634,1.642193 1.93701,4.122764 1.93701,6.84632 0.001,2.201882 -0.86025,5.078604 -2.2848,7.304669 z m -2.39419,-1.869065 c 0.92243,-1.324353 1.47291,-3.123167 1.46369,-4.794152 -0.009,-1.664078 -0.48713,-3.340821 -1.43145,-4.689361 l 0.9996,-0.579258 c 1.05487,1.525884 1.5731,3.40301 1.58346,5.264009 0.0104,1.903616 -0.64375,3.986878 -1.70208,5.508157 z"
         id="path73"
         style="fill:#5599ff;stroke-width:0.115161" />
    </g>
  </g>
</svg>
